<svg width="1200" height="800" viewBox="0 0 1200 800" fill="none" xmlns="http://www.w3.org/2000/svg">
  <defs>
    <linearGradient id="bg2" x1="90" y1="40" x2="1110" y2="760" gradientUnits="userSpaceOnUse">
      <stop stop-color="#0F766E"/>
      <stop offset="1" stop-color="#14B8A6"/>
    </linearGradient>
  </defs>
  <rect width="1200" height="800" fill="url(#bg2)"/>
  <rect x="120" y="120" width="470" height="560" rx="26" fill="white" fill-opacity="0.12"/>
  <rect x="625" y="120" width="455" height="260" rx="26" fill="white" fill-opacity="0.16"/>
  <rect x="625" y="420" width="455" height="260" rx="26" fill="white" fill-opacity="0.2"/>
  <rect x="170" y="190" width="300" height="20" rx="6" fill="white" fill-opacity="0.85"/>
  <rect x="170" y="230" width="360" height="20" rx="6" fill="white" fill-opacity="0.72"/>
  <rect x="170" y="300" width="370" height="210" rx="14" fill="white" fill-opacity="0.3"/>
  <rect x="680" y="185" width="220" height="24" rx="7" fill="white" fill-opacity="0.82"/>
  <rect x="680" y="230" width="330" height="16" rx="5" fill="white" fill-opacity="0.62"/>
  <rect x="680" y="485" width="250" height="24" rx="7" fill="white" fill-opacity="0.88"/>
  <rect x="680" y="530" width="320" height="16" rx="5" fill="white" fill-opacity="0.66"/>
  <text x="170" y="610" fill="white" font-family="Arial, sans-serif" font-size="40" font-weight="700">Weekly OJT Highlights</text>
  <text x="170" y="650" fill="white" fill-opacity="0.9" font-family="Arial, sans-serif" font-size="26">Forms, reports, and system outputs</text>
</svg>
